<?xml version="1.0" encoding="UTF-8" standalone="no"?>
<svg width="24px" height="24px" viewBox="0 0 24 24" version="1.1" xmlns="http://www.w3.org/2000/svg" xmlns:xlink="http://www.w3.org/1999/xlink">
    <!-- Generator: Sketch 3.7.2 (28276) - http://www.bohemiancoding.com/sketch -->
    <title>mdMovies</title>
    <desc>Created with Sketch.</desc>
    <defs></defs>
    <g id="Page-1" stroke="none" stroke-width="1" fill="none" fill-rule="evenodd">
        <g id="mdMovies" fill="#FFFFFF">
            <path d="M2,5.50370994 C2,4.67323387 2.66543579,4 3.5032506,4 L20.4967494,4 C21.3269718,4 22,4.66197696 22,5.50370994 L22,20.4962901 C22,21.3267661 21.3345642,22 20.4967494,22 L3.5032506,22 C2.67302822,22 2,21.338023 2,20.4962901 L2,5.50370994 Z M7,6 L17,6 L17,12 L7,12 L7,6 Z M7,14 L17,14 L17,20 L7,20 L7,14 Z M4,6 L6,6 L6,8 L4,8 L4,6 Z M18,6 L20,6 L20,8 L18,8 L18,6 Z M4,10 L6,10 L6,12 L4,12 L4,10 Z M18,10 L20,10 L20,12 L18,12 L18,10 Z M4,14 L6,14 L6,16 L4,16 L4,14 Z M18,14 L20,14 L20,16 L18,16 L18,14 Z M4,18 L6,18 L6,20 L4,20 L4,18 Z M18,18 L20,18 L20,20 L18,20 L18,18 Z"></path>
        </g>
    </g>
</svg>