<?xml version="1.0" encoding="UTF-8" standalone="no"?>
<svg width="44px" height="44px" viewBox="0 0 44 44" version="1.1" xmlns="http://www.w3.org/2000/svg" xmlns:xlink="http://www.w3.org/1999/xlink">
    <!-- Generator: Sketch 3.7.2 (28276) - http://www.bohemiancoding.com/sketch -->
    <title>mdMore</title>
    <desc>Created with Sketch.</desc>
    <defs></defs>
    <g id="Page-1" stroke="none" stroke-width="1" fill="none" fill-rule="evenodd">
        <g id="Group" fill="#808080">
            <path d="M22,18 C23.1045695,18 24,17.1045695 24,16 C24,14.8954305 23.1045695,14 22,14 C20.8954305,14 20,14.8954305 20,16 C20,17.1045695 20.8954305,18 22,18 Z M22,24 C23.1045695,24 24,23.1045695 24,22 C24,20.8954305 23.1045695,20 22,20 C20.8954305,20 20,20.8954305 20,22 C20,23.1045695 20.8954305,24 22,24 Z M22,30 C23.1045695,30 24,29.1045695 24,28 C24,26.8954305 23.1045695,26 22,26 C20.8954305,26 20,26.8954305 20,28 C20,29.1045695 20.8954305,30 22,30 Z" id="Combined-Shape"></path>
        </g>
    </g>
</svg>