<?xml version="1.0" encoding="UTF-8" standalone="no"?>
<svg width="24px" height="24px" viewBox="0 0 24 24" version="1.1" xmlns="http://www.w3.org/2000/svg" xmlns:xlink="http://www.w3.org/1999/xlink">
    <!-- Generator: Sketch 3.7.2 (28276) - http://www.bohemiancoding.com/sketch -->
    <title>mdUpcoming</title>
    <desc>Created with Sketch.</desc>
    <defs></defs>
    <g id="Page-1" stroke="none" stroke-width="1" fill="none" fill-rule="evenodd">
        <g id="mdUpcoming" fill="#FFFFFF">
            <path d="M2,5.50370994 C2,4.67323387 2.66543579,4 3.5032506,4 L20.4967494,4 C21.3269718,4 22,4.66197696 22,5.50370994 L22,20.4962901 C22,21.3267661 21.3345642,22 20.4967494,22 L3.5032506,22 C2.67302822,22 2,21.338023 2,20.4962901 L2,5.50370994 Z M4,8 L20,8 L20,20 L4,20 L4,8 Z M6,10 L10,10 L10,14 L6,14 L6,10 Z M6,2 L8,2 L8,4 L6,4 L6,2 Z M16,2 L18,2 L18,4 L16,4 L16,2 Z" id="Combined-Shape"></path>
        </g>
    </g>
</svg>