<?xml version="1.0" encoding="UTF-8" standalone="no"?>
<svg width="360px" height="48px" viewBox="0 0 360 48" version="1.1" xmlns="http://www.w3.org/2000/svg" xmlns:xlink="http://www.w3.org/1999/xlink">
    <!-- Generator: Sketch 3.7.2 (28276) - http://www.bohemiancoding.com/sketch -->
    <title>systemIcons</title>
    <desc>Created with Sketch.</desc>
    <defs></defs>
    <g id="Page-1" stroke="none" stroke-width="1" fill="none" fill-rule="evenodd">
        <g id="systemIcons" fill="#FFFFFF">
            <path d="M180,34 C184.970563,34 189,29.9705627 189,25 C189,20.0294373 184.970563,16 180,16 C175.029437,16 171,20.0294373 171,25 C171,29.9705627 175.029437,34 180,34 Z M180,32 C183.865993,32 187,28.8659932 187,25 C187,21.1340068 183.865993,18 180,18 C176.134007,18 173,21.1340068 173,25 C173,28.8659932 176.134007,32 180,32 Z" id="Combined-Shape"></path>
            <path d="M272,18.9940603 C272,17.8927712 272.894514,17 273.99406,17 L286.00594,17 C287.107229,17 288,17.8945138 288,18.9940603 L288,31.0059397 C288,32.1072288 287.105486,33 286.00594,33 L273.99406,33 C272.892771,33 272,32.1054862 272,31.0059397 L272,18.9940603 Z M274,19 L286,19 L286,31 L274,31 L274,19 Z" id="Combined-Shape"></path>
            <path d="M74.5440879,26.5900549 C73.1390269,25.7118918 73.1378539,24.2888413 74.5440879,23.4099451 L85.4559124,16.590055 C86.8609733,15.7118919 88.0000003,16.343312 88.0000003,17.9942021 L88,32.0057979 C88,33.6594501 86.8621461,34.2888413 85.4559121,33.4099451 L74.5440879,26.5900549 Z M76,25 L86,19 L86,31 L76,25 Z" id="Combined-Shape"></path>
        </g>
    </g>
</svg>